<svg preserveAspectRatio="none" width="100%" height="100%" overflow="visible" style="display: block;" viewBox="0 0 10 10" fill="none" xmlns="http://www.w3.org/2000/svg">
<path id="Vector" d="M5 0C7.76142 0 10 2.23858 10 5C10 7.76142 7.76142 10 5 10C2.23858 10 0 7.76142 0 5C0 2.23858 2.23858 0 5 0ZM7.4834 3.35254C7.33267 3.19919 7.09445 3.18927 6.93262 3.32324L6.90137 3.35254L4.12109 6.18066L3.09766 5.13965C2.94686 4.98629 2.70756 4.97593 2.5459 5.11035L2.51562 5.13965C2.35602 5.30216 2.35593 5.56504 2.51562 5.72754L3.83008 7.06445L3.86133 7.09375C3.93639 7.15596 4.02884 7.18735 4.12109 7.1875C4.22666 7.18749 4.33313 7.14559 4.41309 7.06445L7.4834 3.94043L7.51172 3.9082C7.64275 3.74473 7.63321 3.50504 7.4834 3.35254Z" fill="var(--fill-0, #00990F)"/>
</svg>
