<svg preserveAspectRatio="none" width="100%" height="100%" overflow="visible" style="display: block;" viewBox="0 0 13.6526 13.6532" fill="none" xmlns="http://www.w3.org/2000/svg">
<path id="Vector" d="M6.48535 0.682536C6.81968 0.682536 7.1493 0.708671 7.4707 0.757732C7.82454 0.812013 8.03349 1.16876 7.94434 1.51554C7.85514 1.8622 7.50158 2.06653 7.14648 2.0214C6.92759 1.99352 6.70646 1.97919 6.48535 1.97941C5.43287 1.97962 4.40525 2.30049 3.53906 2.89836C2.67299 3.49618 2.00917 4.3432 1.63574 5.32707C1.26232 6.31116 1.1967 7.38606 1.44824 8.40812C1.69978 9.43014 2.25649 10.3514 3.04395 11.0497C3.83142 11.7481 4.81265 12.1907 5.85742 12.3183C6.90214 12.4458 7.9612 12.2529 8.89355 11.7646C9.82596 11.2762 10.588 10.5154 11.0781 9.5839C11.467 8.8447 11.6703 8.02517 11.6748 7.19621C11.6769 6.83796 11.9265 6.51485 12.2822 6.47258C12.6376 6.43039 12.963 6.68411 12.9697 7.04191C12.9705 7.08381 12.9707 7.1258 12.9707 7.16789C12.9707 10.7497 10.0672 13.6532 6.48535 13.6532C2.90361 13.6531 0 10.7497 0 7.16789C0.000135451 3.58623 2.90369 0.68266 6.48535 0.682536ZM5.18457 6.71281C5.27545 6.99756 5.38855 7.442 5.39062 7.45011H5.40234C5.40419 7.44287 5.51742 6.99784 5.6084 6.71281L6.20508 4.82609H7.29395L7.62695 9.29289H6.62402L6.49707 7.28117C6.47471 6.95169 6.49607 6.5505 6.49707 6.53215H6.48633C6.48164 6.54809 6.34697 7.00494 6.25684 7.28117L5.82617 8.57511H4.9668L4.53613 7.28117C4.44619 7.00552 4.31186 6.54989 4.30664 6.53215H4.2959C4.29691 6.55078 4.31825 6.95182 4.2959 7.28117L4.16992 9.29289H3.16016L3.49902 4.82609H4.58789L5.18457 6.71281ZM9.53711 9.29289H8.26074V4.82609H9.53711V9.29289ZM11.124 0.781169C11.1736 0.650247 11.3537 0.650247 11.4033 0.781169C11.6578 1.46707 12.2902 2.75731 13.543 3.10636C13.6794 3.1438 13.6917 3.33675 13.5615 3.38664C12.8606 3.64848 11.7811 4.22231 11.3965 5.3632C11.353 5.49394 11.1675 5.49391 11.124 5.3632C10.7456 4.22231 9.6658 3.64848 8.96484 3.38664C8.83486 3.33668 8.84721 3.15012 8.9834 3.10636C10.2363 2.75727 10.8696 1.467 11.124 0.781169ZM9.47949 0.0536301C9.50639 -0.00880058 9.58507 -0.016874 9.62109 0.0301926L9.71484 0.217693C9.8138 0.38929 9.96601 0.572465 10.1807 0.663982C10.2518 0.694705 10.2618 0.785887 10.1904 0.816325H10.1953C9.99604 0.902779 9.75035 1.05501 9.63281 1.31926C9.60725 1.38028 9.51602 1.38028 9.48535 1.31926C9.36267 1.05499 9.11703 0.902762 8.92285 0.816325C8.85144 0.78588 8.86147 0.694685 8.93262 0.663982C9.22381 0.542009 9.39255 0.257009 9.47949 0.0536301Z" fill="var(--fill-0, white)"/>
</svg>
