<svg preserveAspectRatio="none" width="100%" height="100%" overflow="visible" style="display: block;" viewBox="0 0 25.9385 32" fill="none" xmlns="http://www.w3.org/2000/svg">
<g id="Vector">
<path id="Vector_2" d="M16.6933 21.2677C16.6933 24.5561 14.0291 27.2245 10.7366 27.2245C7.44398 27.2245 4.77975 24.5603 4.77975 21.2677C4.77975 17.9751 7.44398 15.3109 10.7366 15.3109C14.0291 15.3109 16.6933 17.9793 16.6933 21.2677Z" fill="var(--fill-0, white)"/>
<path id="Vector_3" d="M18.394 13.0656L25.9385 0H14.2972C11.0507 0.0879696 10.2003 0.724707 8.96452 2.8653C8.96452 2.8653 1.47873 15.8303 1.47454 15.8387C0.544572 17.4264 0 19.2947 0 21.2677C0 25.1761 2.08614 28.5943 5.20696 30.471C6.81974 31.4429 8.71318 32 10.7323 32C16.6598 32 21.4646 27.1952 21.4646 21.2677C21.4646 19.236 20.8991 17.3384 19.9188 15.7172L18.3898 13.0656H18.394ZM14.3558 2.748H21.1797L16.8064 10.3218L15.3151 7.74133L12.542 2.9407C12.9399 2.80246 13.4845 2.748 14.3516 2.748M10.7365 29.2688C8.77602 29.2688 6.97474 28.5608 5.58398 27.3879C3.84134 25.9217 2.73544 23.7267 2.73544 21.2677C2.73544 19.789 3.1334 18.4024 3.83296 17.2169C3.83296 17.2169 10.7072 5.31588 10.7323 5.26561L13.4175 9.90287L17.6316 17.2043C17.6316 17.2043 17.6316 17.2085 17.6316 17.2127C18.3312 18.4024 18.7333 19.7848 18.7333 21.2635C18.7333 25.6829 15.1517 29.2646 10.7323 29.2646" fill="var(--fill-0, white)"/>
</g>
</svg>
