<svg preserveAspectRatio="none" width="100%" height="100%" overflow="visible" style="display: block;" viewBox="0 0 10 10" fill="none" xmlns="http://www.w3.org/2000/svg">
<path id="Path" fill-rule="evenodd" clip-rule="evenodd" d="M10 5C10 2.23864 7.76182 0 5 0C2.23864 0 0 2.23864 0 5C0 5.17273 0.00909091 5.34318 0.0259091 5.51136C0.196818 7.19182 1.2 8.62682 2.61682 9.39682C2.75864 9.47364 2.90409 9.54364 3.05409 9.60727C3.50227 9.79682 3.98455 9.92318 4.48864 9.97409C4.65727 9.99091 4.82773 10 5 10C5.17273 10 5.34318 9.99091 5.51136 9.97409C6.01591 9.92318 6.49773 9.79682 6.94636 9.60727C7.09636 9.54364 7.24182 9.47364 7.38364 9.39682C8.80045 8.62682 9.80364 7.19182 9.97454 5.51136C9.99136 5.34318 10 5.17273 10 5V5Z" fill="var(--fill-0, white)"/>
</svg>
