<svg preserveAspectRatio="none" width="100%" height="100%" overflow="visible" style="display: block;" viewBox="0 0 112.512 140" fill="none" xmlns="http://www.w3.org/2000/svg">
<g id="Vector">
<path id="Vector_2" d="M62.2701 12.0081H91.8817L72.9156 45.1446L66.4549 33.8523L54.4389 12.8473C56.1642 12.2549 58.5258 12.0081 62.2823 12.0081" fill="var(--fill-0, white)"/>
<path id="Vector_3" d="M46.5711 128.041C38.0547 128.041 30.2602 124.944 24.2277 119.81C16.678 113.392 11.8814 103.778 11.8814 93.0412C11.8814 86.5744 13.6189 80.5025 16.6413 75.3068C16.6413 75.3068 46.4487 23.2264 46.5711 23.0166L58.2077 43.318V43.3304L76.4887 75.2821V75.3068C79.5232 80.5025 81.2608 86.562 81.2608 93.0289C81.2608 112.355 65.7208 128.029 46.5589 128.029" fill="var(--fill-0, white)"/>
<path id="Vector_4" d="M72.4018 93.0413C72.4018 107.431 60.8385 119.094 46.5711 119.094C32.3037 119.094 20.7404 107.431 20.7404 93.0413C20.7404 78.6513 32.3037 66.9887 46.5711 66.9887C60.8385 66.9887 72.4018 78.6513 72.4018 93.0413Z" fill="var(--fill-0, #00B1A9)"/>
<path id="Vector_5" d="M79.7802 57.1527L112.512 0H62.0132C47.9293 0.37024 44.2462 3.17172 38.8745 12.5264C38.8745 12.5264 6.41178 69.2472 6.38731 69.2842C2.36159 76.2447 0 84.4023 0 93.0413C0 110.134 9.05481 125.092 22.6003 133.311C29.5994 137.556 37.8099 140 46.5711 140C72.2916 140 93.1421 118.97 93.1421 93.0413C93.1421 84.1555 90.6826 75.8498 86.4367 68.7659L79.7924 57.1527H79.7802ZM62.2701 12.0081H91.8818L72.9157 45.1446L66.4549 33.8523L54.439 12.8473C56.1643 12.2549 58.5259 12.0081 62.2824 12.0081M46.5711 128.041C38.0547 128.041 30.2602 124.944 24.2277 119.81C16.678 113.392 11.8814 103.778 11.8814 93.0413C11.8814 86.5744 13.6189 80.5025 16.6413 75.3068C16.6413 75.3068 46.4487 23.2264 46.5711 23.0166L58.2077 43.318V43.3304L76.4886 75.2821V75.3068C79.5232 80.5025 81.2608 86.5621 81.2608 93.0289C81.2608 112.355 65.7208 128.029 46.5588 128.029" fill="var(--fill-0, #00B1A9)"/>
</g>
</svg>
