<svg preserveAspectRatio="none" width="100%" height="100%" overflow="visible" style="display: block;" viewBox="0 0 22 22" fill="none" xmlns="http://www.w3.org/2000/svg">
<g id="Vector">
<path fill-rule="evenodd" clip-rule="evenodd" d="M12.0994 6V6.2C12.0994 6.75 11.6504 7.2 11.0994 7.2H10.9004C10.3494 7.2 9.90039 6.75 9.90039 6.2V6C9.90039 5.45 10.3494 5 10.9004 5H11.0994C11.6504 5 12.0994 5.45 12.0994 6M12 9.7V16.3C12 16.686 11.686 17 11.3 17H10.701C10.315 17 10 16.686 10 16.3V9.7C10 9.315 10.315 9 10.701 9H11.3C11.686 9 12 9.315 12 9.7M10.9996 20.4C5.81661 20.4 1.59961 16.184 1.59961 11C1.59961 5.816 5.81661 1.6 10.9996 1.6C16.1836 1.6 20.4006 5.816 20.4006 11C20.4006 16.184 16.1836 20.4 10.9996 20.4M11 0C4.925 0 0 4.925 0 11C0 17.075 4.925 22 11 22C17.076 22 22 17.075 22 11C22 4.925 17.076 0 11 0" fill="var(--fill-0, #3D3935)"/>
<path fill-rule="evenodd" clip-rule="evenodd" d="M12.0994 6V6.2C12.0994 6.75 11.6504 7.2 11.0994 7.2H10.9004C10.3494 7.2 9.90039 6.75 9.90039 6.2V6C9.90039 5.45 10.3494 5 10.9004 5H11.0994C11.6504 5 12.0994 5.45 12.0994 6M12 9.7V16.3C12 16.686 11.686 17 11.3 17H10.701C10.315 17 10 16.686 10 16.3V9.7C10 9.315 10.315 9 10.701 9H11.3C11.686 9 12 9.315 12 9.7M10.9996 20.4C5.81661 20.4 1.59961 16.184 1.59961 11C1.59961 5.816 5.81661 1.6 10.9996 1.6C16.1836 1.6 20.4006 5.816 20.4006 11C20.4006 16.184 16.1836 20.4 10.9996 20.4M11 0C4.925 0 0 4.925 0 11C0 17.075 4.925 22 11 22C17.076 22 22 17.075 22 11C22 4.925 17.076 0 11 0" fill="var(--fill-1, black)" fill-opacity="0.2"/>
</g>
</svg>
