<svg preserveAspectRatio="none" width="100%" height="100%" overflow="visible" style="display: block;" viewBox="0 0 382.229 68.0304" fill="none" xmlns="http://www.w3.org/2000/svg">
<g id="Powered by">
<path id="Vector" d="M0 67.1795V16.2631H8.46883L9.31466 19.672C10.7261 18.2999 12.4336 17.2097 14.4319 16.4067C16.4302 15.6036 18.4654 15.1994 20.5377 15.1994C25.0999 15.1994 28.7158 16.88 31.3748 20.2411C34.0339 23.6022 35.3608 28.1492 35.3608 33.877C35.3608 37.6156 34.7476 40.9555 33.5264 43.8911C32.3 46.8268 30.5396 49.1349 28.2347 50.8154C25.9298 52.496 23.2708 53.3363 20.2575 53.3363C18.328 53.3363 16.4936 53.0278 14.7491 52.4109C13.0099 51.794 11.5244 50.9431 10.3032 49.8528V67.1795H0ZM17.2231 23.0065C14.7755 23.0065 12.4706 23.6447 10.3032 24.9264V43.6039C12.3755 44.8803 14.6804 45.5185 17.2231 45.5185C19.7659 45.5185 21.8012 44.6197 23.0487 42.8222C24.2963 41.0246 24.9201 38.1847 24.9201 34.3024C24.9201 30.4201 24.3069 27.5111 23.0858 25.7082C21.8593 23.9106 19.9086 23.0119 17.2284 23.0119L17.2231 23.0065Z" fill="var(--fill-0, #252F3E)"/>
<path id="Vector_2" d="M59.4351 53.6128C53.8368 53.6128 49.4596 51.9216 46.3037 48.5339C43.153 45.1515 41.5723 40.429 41.5723 34.3662C41.5723 28.3035 43.1477 23.6554 46.3037 20.273C49.4544 16.8906 53.8315 15.1941 59.4351 15.1941C65.0387 15.1941 69.4106 16.8853 72.5665 20.273C75.7172 23.6607 77.2979 28.3567 77.2979 34.3662C77.2979 40.3758 75.7225 45.1515 72.5665 48.5339C69.4158 51.9216 65.0387 53.6128 59.4351 53.6128ZM59.4351 45.6621C64.3779 45.6621 66.8466 41.8968 66.8466 34.3715C66.8466 26.8463 64.3779 23.1501 59.4351 23.1501C54.4923 23.1501 52.0236 26.8888 52.0236 34.3715C52.0236 41.8542 54.4923 45.6621 59.4351 45.6621Z" fill="var(--fill-0, #252F3E)"/>
<path id="Vector_3" d="M114.07 52.5492L107.859 27.0537L101.578 52.5492H91.6241L80.1208 16.2631H90.9897L96.9898 42.4658L103.481 16.2631H112.727L119.362 42.5403L125.008 16.2631H135.596L124.019 52.5492H114.065H114.07Z" fill="var(--fill-0, #252F3E)"/>
<path id="Vector_4" d="M147.951 36.9243C148.136 40.0514 149.082 42.3116 150.774 43.705C152.465 45.1037 155.124 45.8004 158.751 45.8004C161.902 45.8004 165.576 45.21 169.762 44.0241V50.9111C168.113 51.7621 166.152 52.4268 163.868 52.9002C161.584 53.3735 159.221 53.6128 156.774 53.6128C150.795 53.6128 146.243 51.9801 143.114 48.7147C139.984 45.4494 138.419 40.6683 138.419 34.3715C138.419 28.0748 139.974 23.6022 143.077 20.2411C146.185 16.88 150.488 15.1994 155.997 15.1994C160.654 15.1994 164.243 16.4917 166.76 19.0711C169.276 21.6504 170.534 25.3306 170.534 30.1117C170.534 31.154 170.466 32.34 170.323 33.6642C170.18 34.9885 170.016 36.0787 169.831 36.9296H147.951V36.9243ZM155.648 22.3684C153.343 22.3684 151.519 23.065 150.176 24.4637C148.834 25.8624 148.072 27.8833 147.882 30.5371H161.717V29.3299C161.717 24.6924 159.692 22.3684 155.648 22.3684Z" fill="var(--fill-0, #252F3E)"/>
<path id="Vector_5" d="M178.443 52.5492V16.2631H186.912L188.18 21.661C190.062 19.5763 191.839 18.0978 193.509 17.2203C195.18 16.3428 196.956 15.9067 198.838 15.9067C199.731 15.9067 200.672 15.9759 201.661 16.1195V25.7082C200.344 25.4263 198.885 25.2827 197.284 25.2827C194.223 25.2827 191.379 25.8252 188.741 26.9154V52.5492H178.432H178.443Z" fill="var(--fill-0, #252F3E)"/>
<path id="Vector_6" d="M214.729 36.9243C214.914 40.0514 215.86 42.3116 217.552 43.705C219.243 45.1037 221.902 45.8004 225.529 45.8004C228.679 45.8004 232.354 45.21 236.54 44.0241V50.9111C234.891 51.7621 232.93 52.4268 230.646 52.9002C228.362 53.3735 225.999 53.6128 223.552 53.6128C217.573 53.6128 213.021 51.9801 209.892 48.7147C206.762 45.4494 205.197 40.6683 205.197 34.3715C205.197 28.0748 206.751 23.6022 209.855 20.2411C212.963 16.88 217.266 15.1994 222.775 15.1994C227.432 15.1994 231.021 16.4917 233.538 19.0711C236.054 21.6504 237.312 25.3306 237.312 30.1117C237.312 31.154 237.243 32.34 237.101 33.6642C236.958 34.9885 236.794 36.0787 236.609 36.9296H214.729V36.9243ZM222.42 22.3684C220.116 22.3684 218.292 23.065 216.949 24.4637C215.606 25.8624 214.845 27.8833 214.655 30.5371H228.489V29.3299C228.489 24.6924 226.464 22.3684 222.42 22.3684Z" fill="var(--fill-0, #252F3E)"/>
<path id="Vector_7" d="M269.575 52.5492L268.729 49.3529C265.811 52.0067 262.354 53.3309 258.352 53.3309C255.386 53.3309 252.775 52.5864 250.518 51.092C248.26 49.5975 246.505 47.433 245.258 44.5931C244.01 41.7532 243.386 38.4134 243.386 34.5789C243.386 28.7077 244.771 24.0117 247.552 20.4804C250.327 16.9544 253.996 15.1888 258.564 15.1888C262.28 15.1888 265.505 16.2524 268.232 18.385V0H278.541V52.5492H269.575ZM261.735 45.5185C263.993 45.5185 266.16 44.8537 268.227 43.5295V24.7828C266.202 23.6022 263.876 23.0065 261.238 23.0065C258.743 23.0065 256.888 23.9425 255.661 25.8092C254.435 27.6812 253.827 30.5105 253.827 34.2971C253.827 38.0836 254.472 40.9023 255.767 42.7477C257.062 44.5931 259.05 45.5185 261.73 45.5185H261.735Z" fill="var(--fill-0, #252F3E)"/>
<path id="Vector_8" d="M306.913 52.5492V0H317.222V19.0338C318.585 17.8532 320.187 16.9172 322.022 16.2312C323.856 15.5451 325.669 15.1994 327.456 15.1994C332.018 15.1994 335.634 16.88 338.293 20.2411C340.952 23.6022 342.279 28.1492 342.279 33.8769C342.279 37.6156 341.666 40.9555 340.445 43.8911C339.218 46.8268 337.458 49.1349 335.153 50.8154C332.848 52.496 330.189 53.3362 327.176 53.3362C325.008 53.3362 322.989 52.9587 321.107 52.1982C319.225 51.443 317.65 50.374 316.376 49.0019L315.456 52.5545H306.913V52.5492ZM324.136 23.0065C321.689 23.0065 319.384 23.6447 317.216 24.9264V43.6039C319.289 44.8803 321.593 45.5185 324.136 45.5185C326.679 45.5185 328.714 44.6197 329.962 42.8222C331.209 41.0246 331.833 38.1847 331.833 34.3024C331.833 30.4201 331.22 27.5111 329.999 25.7082C328.772 23.9106 326.822 23.0119 324.141 23.0119L324.136 23.0065Z" fill="var(--fill-0, #252F3E)"/>
<path id="Vector_9" d="M359.217 53.1182L344.959 16.2631H355.902L363.948 43.3912L371.571 16.2631H382.229L366.983 57.4525C365.619 61.1912 363.948 63.8876 361.971 65.5468C359.994 67.2008 357.499 68.0304 354.491 68.0304C352.138 68.0304 349.855 67.6528 347.645 66.8923V59.8617C349.151 60.0053 350.489 60.0744 351.668 60.0744C353.645 60.0744 355.173 59.6117 356.256 58.6917C357.34 57.7663 358.255 56.1708 359.011 53.9L359.222 53.1182H359.217Z" fill="var(--fill-0, #252F3E)"/>
</g>
</svg>
