<svg preserveAspectRatio="none" width="100%" height="100%" overflow="visible" style="display: block;" viewBox="0 0 25.3333 25.4103" fill="none" xmlns="http://www.w3.org/2000/svg">
<path id="overview" d="M21.5667 22.4743L22.3973 21.6437L19.923 19.1693V15.4873H18.7437V19.6513L21.5667 22.4743ZM2.41033 22.6667C1.74544 22.6667 1.17744 22.4312 0.706333 21.9603C0.235445 21.4892 0 20.9212 0 20.2563V2.41033C0 1.74544 0.235445 1.17744 0.706333 0.706333C1.17744 0.235445 1.74544 0 2.41033 0H20.2563C20.9212 0 21.4892 0.235445 21.9603 0.706333C22.4312 1.17744 22.6667 1.74544 22.6667 2.41033V10.8437C22.3384 10.7034 22.0098 10.5847 21.6807 10.4873C21.3516 10.3898 21.0136 10.312 20.6667 10.254V2.41033C20.6667 2.30767 20.6239 2.21367 20.5383 2.12833C20.453 2.04278 20.359 2 20.2563 2H2.41033C2.30767 2 2.21367 2.04278 2.12833 2.12833C2.04278 2.21367 2 2.30767 2 2.41033V20.2563C2 20.359 2.04278 20.453 2.12833 20.5383C2.21367 20.6239 2.30767 20.6667 2.41033 20.6667H10.2207C10.2702 21.0358 10.3437 21.3849 10.441 21.714C10.5386 22.0431 10.6573 22.3607 10.7973 22.6667H2.41033ZM2 20.6667V2V10.254V10.154V20.6667ZM5 17.5127H10.3563C10.4146 17.1658 10.5009 16.8278 10.6153 16.4987C10.73 16.1696 10.8548 15.841 10.9897 15.513H5V17.5127ZM5 12.3333H13.454C14.0282 11.8462 14.641 11.4381 15.2923 11.109C15.9437 10.7799 16.6411 10.5461 17.3847 10.4077V10.3333H5V12.3333ZM5 7.15367H17.6667V5.154H5V7.15367ZM19.3333 25.4103C17.6684 25.4103 16.2522 24.8266 15.0847 23.659C13.9171 22.4914 13.3333 21.0752 13.3333 19.4103C13.3333 17.7454 13.9171 16.3292 15.0847 15.1617C16.2522 13.9941 17.6684 13.4103 19.3333 13.4103C20.9982 13.4103 22.4144 13.9941 23.582 15.1617C24.7496 16.3292 25.3333 17.7454 25.3333 19.4103C25.3333 21.0752 24.7496 22.4914 23.582 23.659C22.4144 24.8266 20.9982 25.4103 19.3333 25.4103Z" fill="var(--fill-0, #763F98)"/>
</svg>
