<svg preserveAspectRatio="none" width="100%" height="100%" overflow="visible" style="display: block;" viewBox="0 0 27.6069 32" fill="none" xmlns="http://www.w3.org/2000/svg">
<g id="Vector">
<path id="Vector_2" d="M19.0958 25.1747C23.5903 25.1747 27.2338 21.5312 27.2338 17.0368C27.2338 12.5423 23.5903 8.89884 19.0958 8.89884C14.6014 8.89884 10.9579 12.5423 10.9579 17.0368C10.9579 21.5312 14.6014 25.1747 19.0958 25.1747Z" fill="url(#paint0_linear_31795_198715)"/>
<path id="Vector_3" d="M26.2698 13.1924C24.7387 16.6571 21.272 19.0751 17.2407 19.0751C14.8549 19.0751 12.667 18.2283 10.9609 16.819C10.959 16.8912 10.9579 16.9637 10.9579 17.0365C10.9579 21.5309 14.6015 25.1744 19.0958 25.1744C23.5902 25.1744 27.2338 21.5309 27.2338 17.0365C27.2338 15.646 26.8846 14.337 26.2698 13.1924Z" fill="var(--fill-0, #8E53B4)"/>
<path id="Vector_4" d="M13.7626 31.9926C13.7626 31.9926 17.5391 32.2554 21.3917 29.6415C25.2442 27.0276 26.8432 23.4546 27.4117 20.6096C27.9802 17.7646 27.2174 14.8428 26.2698 13.1931C26.2698 13.1931 25.5732 17.1367 22.4753 19.2263C19.3774 21.3158 17.1003 21.4414 14.4393 21.0206C11.7782 20.5998 9.33878 18.4116 8.31568 17.1048C7.29285 15.798 5.70452 12.6464 6.75105 8.80176C6.75105 8.80176 2.43845 9.63299 0.669146 14.3086C0.669146 14.3086 -1.05846 18.7959 1.03816 23.6694C3.13478 28.5429 8.24482 31.9926 13.7623 31.9926H13.7626Z" fill="url(#paint1_linear_31795_198715)"/>
<path id="Vector_5" d="M0.621419 14.4441C0.621419 14.4441 1.6963 10.7079 4.45055 7.12898C7.46779 3.20855 9.35864 1.79681 11.2525 0.766084C12.1369 0.284786 13.0629 -0.0681475 14.7464 0.0111604C16.7152 0.104095 18.1605 1.41935 18.354 1.58832C18.5475 1.7573 19.7357 2.76404 20.1483 3.82993C20.5609 4.89582 20.347 5.75567 20.0576 6.39231C19.7681 7.02896 19.0912 7.7986 18.1422 8.1022C18.1422 8.1022 17.6811 8.27063 17.2079 8.27063C16.7348 8.27063 11.8251 8.17933 10.1316 8.27717C8.68521 8.36084 2.75319 8.66144 0.621419 14.4441Z" fill="var(--fill-0, #E1B1FF)"/>
</g>
<defs>
<linearGradient id="paint0_linear_31795_198715" x1="19.0958" y1="19.5024" x2="19.0958" y2="7.66589" gradientUnits="userSpaceOnUse">
<stop stop-color="#A064C6"/>
<stop offset="1" stop-color="#CE99F0"/>
</linearGradient>
<linearGradient id="paint1_linear_31795_198715" x1="7.24952" y1="9.01543" x2="19.9816" y2="28.1145" gradientUnits="userSpaceOnUse">
<stop stop-color="#A36EC4"/>
<stop offset="0.98" stop-color="#E0AFFF"/>
</linearGradient>
</defs>
</svg>
