<svg preserveAspectRatio="none" width="100%" height="100%" overflow="visible" style="display: block;" viewBox="0 0 20 20" fill="none" xmlns="http://www.w3.org/2000/svg">
<path id="Vector" d="M4.49609 11.0078C6.62403 11.0078 7.67995 11.0081 8.33594 11.6641C8.99193 12.3201 8.99219 13.376 8.99219 15.5039C8.99219 17.6318 8.99184 18.6877 8.33594 19.3438C7.67995 19.9997 6.62403 20 4.49609 20C2.36809 20 1.31225 19.9998 0.65625 19.3438C0.000250278 18.6877 0 17.6319 0 15.5039C1.40223e-10 13.376 0.000259587 12.3201 0.65625 11.6641C1.31226 11.0082 2.3682 11.0078 4.49609 11.0078ZM15.5039 11.0078C17.6318 11.0078 18.6877 11.0082 19.3438 11.6641C19.9997 12.3201 20 13.376 20 15.5039C20 17.6319 19.9998 18.6877 19.3438 19.3438C18.6877 19.9998 17.6319 20 15.5039 20C13.376 20 12.3201 19.9997 11.6641 19.3438C11.0082 18.6877 11.0078 17.6318 11.0078 15.5039C11.0078 13.376 11.0081 12.3201 11.6641 11.6641C12.3201 11.0081 13.376 11.0078 15.5039 11.0078ZM4.49609 0C6.62403 1.41543e-10 7.67995 0.000259632 8.33594 0.65625C8.99184 1.31226 8.99219 2.36819 8.99219 4.49609C8.99219 6.62403 8.99193 7.67995 8.33594 8.33594C7.67995 8.99193 6.62403 8.99219 4.49609 8.99219C2.36819 8.99219 1.31226 8.99184 0.65625 8.33594C0.000259632 7.67995 1.41543e-10 6.62403 0 4.49609C0 2.38409 0.000249996 1.31225 0.65625 0.65625C1.31225 0.000249996 2.36809 0 4.49609 0ZM15.5039 0C17.6319 0 18.6877 0.000250278 19.3438 0.65625C19.9998 1.31225 20 2.36809 20 4.49609C20 6.62403 19.9997 7.67995 19.3438 8.33594C18.6877 8.99184 17.6318 8.99219 15.5039 8.99219C13.376 8.99219 12.3201 8.99193 11.6641 8.33594C11.0081 7.67995 11.0078 6.62403 11.0078 4.49609C11.0078 2.3682 11.0082 1.31226 11.6641 0.65625C12.3201 0.000259587 13.376 1.40223e-10 15.5039 0Z" fill="var(--fill-0, #763F98)"/>
</svg>
