<svg preserveAspectRatio="none" width="100%" height="100%" overflow="visible" style="display: block;" viewBox="0 0 158.947 95.6213" fill="none" xmlns="http://www.w3.org/2000/svg">
<g id="AWS">
<path id="Vector" d="M44.7928 34.7279C44.7928 36.6956 45.0043 38.2911 45.3743 39.4611C45.7973 40.6311 46.3259 41.9074 47.066 43.2902C47.3303 43.7156 47.436 44.1411 47.436 44.5134C47.436 45.0452 47.1189 45.577 46.4316 46.1088L43.1012 48.3425C42.6254 48.6616 42.1496 48.8211 41.7267 48.8211C41.1981 48.8211 40.6694 48.5552 40.1408 48.0766C39.4007 47.2788 38.7663 46.4279 38.2377 45.577C37.709 44.6729 37.1804 43.6624 36.5989 42.4393C32.4755 47.332 27.2948 49.7784 21.0569 49.7784C16.6163 49.7784 13.0744 48.502 10.484 45.9493C7.8937 43.3965 6.57208 39.9929 6.57208 35.7383C6.57208 31.2178 8.15803 27.5483 11.3827 24.7828C14.6074 22.0174 18.8894 20.6346 24.3344 20.6346C26.1318 20.6346 27.982 20.7942 29.938 21.0601C31.894 21.326 33.9028 21.7514 36.0174 22.2301V18.3478C36.0174 14.306 35.1716 11.4873 33.5328 9.83867C31.8411 8.19003 28.9865 7.3923 24.9159 7.3923C23.0657 7.3923 21.1626 7.60503 19.2066 8.08367C17.2506 8.56231 15.3475 9.14731 13.4973 9.89186C12.6515 10.2641 12.0171 10.4769 11.6471 10.5832C11.277 10.6896 11.0127 10.7428 10.8012 10.7428C10.0611 10.7428 9.69108 10.2109 9.69108 9.09413V6.48821C9.69108 5.63729 9.79681 4.99911 10.0611 4.62684C10.3255 4.25456 10.8012 3.88229 11.5413 3.51001C13.3916 2.55274 15.6118 1.75501 18.2022 1.11682C20.7925 0.425456 23.5415 0.106364 26.449 0.106364C32.7398 0.106364 37.339 1.54228 40.2994 4.41411C43.2069 7.28594 44.6871 11.6469 44.6871 17.4969V34.7279H44.7928ZM23.33 42.8115C25.0745 42.8115 26.8719 42.4924 28.775 41.8543C30.6781 41.2161 32.3698 40.0461 33.7971 38.4506C34.6429 37.4401 35.2773 36.3233 35.5945 35.047C35.9117 33.7706 36.1231 32.2283 36.1231 30.4201V28.1865C34.5901 27.8142 32.9513 27.4951 31.2596 27.2824C29.568 27.0696 27.9292 26.9633 26.2904 26.9633C22.7485 26.9633 20.1582 27.6547 18.4137 29.0906C16.6691 30.5265 15.8233 32.5474 15.8233 35.2065C15.8233 37.7061 16.4577 39.5674 17.7793 40.8438C19.048 42.1733 20.8983 42.8115 23.33 42.8115ZM65.7799 48.5552C64.8283 48.5552 64.194 48.3956 63.771 48.0234C63.3481 47.7043 62.9781 46.9597 62.6609 45.9493L50.2378 4.83956C49.9207 3.77592 49.7621 3.08456 49.7621 2.71228C49.7621 1.86137 50.185 1.38273 51.0308 1.38273H56.2115C57.2159 1.38273 57.9031 1.54228 58.2732 1.91455C58.6961 2.23364 59.0133 2.97819 59.3304 3.98865L68.2116 39.1951L76.4584 3.98865C76.7227 2.92501 77.0399 2.23364 77.4629 1.91455C77.8858 1.59546 78.6259 1.38273 79.5774 1.38273H83.8065C84.811 1.38273 85.4982 1.54228 85.9211 1.91455C86.344 2.23364 86.714 2.97819 86.9255 3.98865L95.278 39.6206L104.424 3.98865C104.741 2.92501 105.111 2.23364 105.481 1.91455C105.904 1.59546 106.591 1.38273 107.543 1.38273H112.459C113.305 1.38273 113.78 1.80819 113.78 2.71228C113.78 2.97819 113.728 3.2441 113.675 3.5632C113.622 3.88229 113.516 4.30774 113.305 4.89275L100.564 46.0025C100.247 47.0661 99.8772 47.7575 99.4543 48.0766C99.0314 48.3956 98.3442 48.6084 97.4455 48.6084H92.8991C91.8947 48.6084 91.2075 48.4488 90.7846 48.0766C90.3617 47.7043 89.9916 47.0129 89.7802 45.9493L81.5862 11.6469L73.4452 45.8961C73.1808 46.9597 72.8637 47.6511 72.4408 48.0234C72.0178 48.3956 71.2778 48.5552 70.3262 48.5552H65.7799ZM133.71 49.9911C130.961 49.9911 128.212 49.672 125.569 49.0338C122.926 48.3956 120.864 47.7043 119.49 46.9065C118.644 46.4279 118.062 45.8961 117.851 45.4174C117.64 44.9388 117.534 44.407 117.534 43.9284V41.2161C117.534 40.0992 117.957 39.5674 118.75 39.5674C119.067 39.5674 119.384 39.6206 119.701 39.727C120.018 39.8333 120.494 40.0461 121.023 40.2588C122.82 41.0565 124.776 41.6947 126.838 42.1202C128.952 42.5456 131.014 42.7583 133.129 42.7583C136.459 42.7583 139.05 42.1733 140.847 41.0033C142.644 39.8333 143.596 38.1315 143.596 35.951C143.596 34.462 143.12 33.2388 142.169 32.2283C141.217 31.2178 139.42 30.3138 136.829 29.4628L129.164 27.0697C125.305 25.8465 122.45 24.0383 120.706 21.6451C118.961 19.3051 118.062 16.6992 118.062 13.9337C118.062 11.7 118.538 9.73231 119.49 8.03049C120.441 6.32866 121.71 4.83956 123.296 3.66956C124.882 2.44637 126.679 1.54228 128.794 0.904095C130.908 0.26591 133.129 0 135.455 0C136.618 0 137.834 0.0531821 138.997 0.212728C140.213 0.372274 141.323 0.585002 142.433 0.79773C143.49 1.06364 144.495 1.32955 145.446 1.64864C146.398 1.96773 147.138 2.28683 147.666 2.60592C148.406 3.03138 148.935 3.45683 149.252 3.93547C149.569 4.36093 149.728 4.94593 149.728 5.69048V8.19003C149.728 9.30685 149.305 9.89186 148.512 9.89186C148.089 9.89186 147.402 9.67913 146.503 9.25367C143.49 7.87094 140.107 7.17957 136.353 7.17957C133.34 7.17957 130.961 7.65821 129.323 8.66867C127.684 9.67913 126.838 11.2214 126.838 13.4019C126.838 14.891 127.367 16.1673 128.424 17.1778C129.481 18.1883 131.437 19.1987 134.239 20.1028L141.746 22.496C145.552 23.7192 148.301 25.421 149.94 27.6015C151.578 29.7819 152.371 32.2815 152.371 35.047C152.371 37.3338 151.895 39.4079 150.997 41.2161C150.045 43.0243 148.776 44.6197 147.138 45.8961C145.499 47.2256 143.543 48.1829 141.27 48.8743C138.891 49.6188 136.406 49.9911 133.71 49.9911Z" fill="var(--fill-0, #252F3E)"/>
<g id="Group">
<path id="Vector_2" fill-rule="evenodd" clip-rule="evenodd" d="M143.702 75.8376C126.309 88.7608 101.04 95.6213 79.3131 95.6213C48.8634 95.6213 21.4269 84.2935 0.704178 65.4671C-0.934609 63.978 0.545566 61.9571 2.50154 63.1271C24.9159 76.2098 52.5639 84.134 81.1633 84.134C100.459 84.134 121.657 80.0921 141.164 71.7957C144.072 70.4662 146.556 73.7103 143.702 75.8376Z" fill="var(--fill-0, #FF9900)"/>
<path id="Vector_3" fill-rule="evenodd" clip-rule="evenodd" d="M150.944 67.5412C148.724 64.6693 136.248 66.1584 130.591 66.8498C128.9 67.0625 128.635 65.5734 130.168 64.4566C140.107 57.4366 156.442 59.4575 158.345 61.7975C160.248 64.1907 157.816 80.6239 148.512 88.4949C147.085 89.7181 145.71 89.0799 146.345 87.4844C148.459 82.2194 153.164 70.3598 150.944 67.5412Z" fill="var(--fill-0, #FF9900)"/>
</g>
</g>
</svg>
