<svg preserveAspectRatio="none" width="100%" height="100%" overflow="visible" style="display: block;" viewBox="0 0 24 26.6667" fill="none" xmlns="http://www.w3.org/2000/svg">
<path id="assignment_late" d="M12 21.3333C12.3333 21.3333 12.6203 21.213 12.861 20.9723C13.1019 20.7314 13.2223 20.4443 13.2223 20.111C13.2223 19.7777 13.1019 19.4907 12.861 19.25C12.6203 19.0093 12.3333 18.889 12 18.889C11.6667 18.889 11.3797 19.0093 11.139 19.25C10.8981 19.4907 10.7777 19.7777 10.7777 20.111C10.7777 20.4443 10.8981 20.7314 11.139 20.9723C11.3797 21.213 11.6667 21.3333 12 21.3333ZM10.8667 16.6223H13.089V8H10.8667V16.6223ZM2.22233 26.6667C1.61122 26.6667 1.088 26.4491 0.652667 26.014C0.217556 25.5787 0 25.0554 0 24.4443V4.889C0 4.27789 0.217556 3.75467 0.652667 3.31933C1.088 2.88422 1.61122 2.66667 2.22233 2.66667H8.64433C8.81478 1.88156 9.213 1.24078 9.839 0.744334C10.4648 0.248112 11.1851 0 12 0C12.8149 0 13.5352 0.248112 14.161 0.744334C14.787 1.24078 15.1852 1.88156 15.3557 2.66667H21.7777C22.3888 2.66667 22.912 2.88422 23.3473 3.31933C23.7824 3.75467 24 4.27789 24 4.889V24.4443C24 25.0554 23.7824 25.5787 23.3473 26.014C22.912 26.4491 22.3888 26.6667 21.7777 26.6667H2.22233ZM2.22233 24.4443H21.7777V4.889H2.22233V24.4443ZM12 4.17767C12.3038 4.17767 12.5649 4.06844 12.7833 3.85C13.0018 3.63156 13.111 3.37044 13.111 3.06667C13.111 2.76289 13.0018 2.50178 12.7833 2.28333C12.5649 2.06489 12.3038 1.95567 12 1.95567C11.6962 1.95567 11.4351 2.06489 11.2167 2.28333C10.9982 2.50178 10.889 2.76289 10.889 3.06667C10.889 3.37044 10.9982 3.63156 11.2167 3.85C11.4351 4.06844 11.6962 4.17767 12 4.17767Z" fill="var(--fill-0, #6B6B6B)"/>
</svg>
