<svg preserveAspectRatio="none" width="100%" height="100%" overflow="visible" style="display: block;" viewBox="0 0 26.7333 26.7333" fill="none" xmlns="http://www.w3.org/2000/svg">
<path id="emergency_home" d="M13.3667 26.7333C13.0111 26.7333 12.6722 26.6667 12.35 26.5333C12.0278 26.4 11.7333 26.2111 11.4667 25.9667L0.766667 15.2667C0.522222 15 0.333333 14.7056 0.2 14.3833C0.0666667 14.0611 0 13.7222 0 13.3667C0 13.0111 0.0666667 12.6667 0.2 12.3333C0.333333 12 0.522222 11.7111 0.766667 11.4667L11.4667 0.766667C11.7333 0.5 12.0278 0.305556 12.35 0.183333C12.6722 0.0611111 13.0111 0 13.3667 0C13.7222 0 14.0667 0.0611111 14.4 0.183333C14.7333 0.305556 15.0222 0.5 15.2667 0.766667L25.9667 11.4667C26.2333 11.7111 26.4278 12 26.55 12.3333C26.6722 12.6667 26.7333 13.0111 26.7333 13.3667C26.7333 13.7222 26.6722 14.0611 26.55 14.3833C26.4278 14.7056 26.2333 15 25.9667 15.2667L15.2667 25.9667C15.0222 26.2111 14.7333 26.4 14.4 26.5333C14.0667 26.6667 13.7222 26.7333 13.3667 26.7333ZM13.3667 24.0667L24.0667 13.3667L13.3667 2.66667L2.66667 13.3667L13.3667 24.0667ZM12.0333 14.7H14.7V6.7H12.0333V14.7ZM13.3667 18.7C13.7444 18.7 14.0611 18.5722 14.3167 18.3167C14.5722 18.0611 14.7 17.7444 14.7 17.3667C14.7 16.9889 14.5722 16.6722 14.3167 16.4167C14.0611 16.1611 13.7444 16.0333 13.3667 16.0333C12.9889 16.0333 12.6722 16.1611 12.4167 16.4167C12.1611 16.6722 12.0333 16.9889 12.0333 17.3667C12.0333 17.7444 12.1611 18.0611 12.4167 18.3167C12.6722 18.5722 12.9889 18.7 13.3667 18.7Z" fill="var(--fill-0, #EC0000)"/>
</svg>
