<svg preserveAspectRatio="none" width="100%" height="100%" overflow="visible" style="display: block;" viewBox="0 0 14.6667 14.6667" fill="none" xmlns="http://www.w3.org/2000/svg">
<g id="Vector">
<path fill-rule="evenodd" clip-rule="evenodd" d="M8.06626 4V4.13333C8.06626 4.5 7.76693 4.8 7.39959 4.8H7.26693C6.89959 4.8 6.60026 4.5 6.60026 4.13333V4C6.60026 3.63333 6.89959 3.33333 7.26693 3.33333H7.39959C7.76693 3.33333 8.06626 3.63333 8.06626 4M8 6.46667V10.8667C8 11.124 7.79067 11.3333 7.53333 11.3333H7.134C6.87667 11.3333 6.66667 11.124 6.66667 10.8667V6.46667C6.66667 6.21 6.87667 6 7.134 6H7.53333C7.79067 6 8 6.21 8 6.46667M7.33307 13.6C3.87774 13.6 1.06641 10.7893 1.06641 7.33333C1.06641 3.87733 3.87774 1.06667 7.33307 1.06667C10.7891 1.06667 13.6004 3.87733 13.6004 7.33333C13.6004 10.7893 10.7891 13.6 7.33307 13.6M7.33333 0C3.28333 0 0 3.28333 0 7.33333C0 11.3833 3.28333 14.6667 7.33333 14.6667C11.384 14.6667 14.6667 11.3833 14.6667 7.33333C14.6667 3.28333 11.384 0 7.33333 0" fill="var(--fill-0, #3D3935)"/>
<path fill-rule="evenodd" clip-rule="evenodd" d="M8.06626 4V4.13333C8.06626 4.5 7.76693 4.8 7.39959 4.8H7.26693C6.89959 4.8 6.60026 4.5 6.60026 4.13333V4C6.60026 3.63333 6.89959 3.33333 7.26693 3.33333H7.39959C7.76693 3.33333 8.06626 3.63333 8.06626 4M8 6.46667V10.8667C8 11.124 7.79067 11.3333 7.53333 11.3333H7.134C6.87667 11.3333 6.66667 11.124 6.66667 10.8667V6.46667C6.66667 6.21 6.87667 6 7.134 6H7.53333C7.79067 6 8 6.21 8 6.46667M7.33307 13.6C3.87774 13.6 1.06641 10.7893 1.06641 7.33333C1.06641 3.87733 3.87774 1.06667 7.33307 1.06667C10.7891 1.06667 13.6004 3.87733 13.6004 7.33333C13.6004 10.7893 10.7891 13.6 7.33307 13.6M7.33333 0C3.28333 0 0 3.28333 0 7.33333C0 11.3833 3.28333 14.6667 7.33333 14.6667C11.384 14.6667 14.6667 11.3833 14.6667 7.33333C14.6667 3.28333 11.384 0 7.33333 0" fill="var(--fill-1, black)" fill-opacity="0.2"/>
</g>
</svg>
