<svg preserveAspectRatio="none" width="100%" height="100%" overflow="visible" style="display: block;" viewBox="0 0 20.7051 24" fill="none" xmlns="http://www.w3.org/2000/svg">
<g id="Vector">
<path id="Vector_2" d="M14.3219 18.881C17.6927 18.881 20.4253 16.1484 20.4253 12.7776C20.4253 9.40674 17.6927 6.67413 14.3219 6.67413C10.951 6.67413 8.21844 9.40674 8.21844 12.7776C8.21844 16.1484 10.951 18.881 14.3219 18.881Z" fill="url(#paint0_linear_31792_198345)"/>
<path id="Vector_3" d="M19.7024 9.89429C18.554 12.4928 15.954 14.3063 12.9305 14.3063C11.1412 14.3063 9.50025 13.6712 8.22069 12.6143C8.21926 12.6684 8.21844 12.7228 8.21844 12.7774C8.21844 16.1482 10.9511 18.8808 14.3219 18.8808C17.6927 18.8808 20.4253 16.1482 20.4253 12.7774C20.4253 11.7345 20.1635 10.7528 19.7024 9.89429Z" fill="var(--fill-0, #8E53B4)"/>
<path id="Vector_4" d="M10.3219 23.9945C10.3219 23.9945 13.1543 24.1915 16.0438 22.2311C18.9332 20.2707 20.1324 17.591 20.5588 15.4572C20.9852 13.3235 20.4131 11.1321 19.7023 9.89484C19.7023 9.89484 19.1799 12.8525 16.8565 14.4197C14.533 15.9868 12.8252 16.0811 10.8295 15.7655C8.83369 15.4499 7.00409 13.8087 6.23676 12.8286C5.46964 11.8485 4.27839 9.48481 5.06329 6.60132C5.06329 6.60132 1.82884 7.22474 0.50186 10.7315C0.50186 10.7315 -0.793843 14.0969 0.77862 17.7521C2.35108 21.4072 6.18362 23.9945 10.3217 23.9945H10.3219Z" fill="url(#paint1_linear_31792_198345)"/>
<path id="Vector_5" d="M0.466064 10.8331C0.466064 10.8331 1.27223 8.03094 3.33791 5.34673C5.60084 2.40641 7.01898 1.34761 8.43937 0.574563C9.10265 0.21359 9.79721 -0.0511107 11.0598 0.00837027C12.5364 0.0780713 13.6203 1.06451 13.7655 1.19124C13.9106 1.31797 14.8018 2.07303 15.1112 2.87245C15.4207 3.67186 15.2603 4.31675 15.0432 4.79423C14.8261 5.27172 14.3184 5.84895 13.6066 6.07665C13.6066 6.07665 13.2608 6.20297 12.906 6.20297C12.5511 6.20297 8.86882 6.1345 7.59867 6.20788C6.51391 6.27063 2.0649 6.49608 0.466064 10.8331Z" fill="var(--fill-0, #E1B1FF)"/>
</g>
<defs>
<linearGradient id="paint0_linear_31792_198345" x1="14.3219" y1="14.6268" x2="14.3219" y2="5.74942" gradientUnits="userSpaceOnUse">
<stop stop-color="#A064C6"/>
<stop offset="1" stop-color="#CE99F0"/>
</linearGradient>
<linearGradient id="paint1_linear_31792_198345" x1="5.43714" y1="6.76157" x2="14.9862" y2="21.0858" gradientUnits="userSpaceOnUse">
<stop stop-color="#A36EC4"/>
<stop offset="0.98" stop-color="#E0AFFF"/>
</linearGradient>
</defs>
</svg>
