<svg preserveAspectRatio="none" width="100%" height="100%" overflow="visible" style="display: block;" viewBox="0 0 15.3496 15.3604" fill="none" xmlns="http://www.w3.org/2000/svg">
<g id="Vector">
<path d="M1.59961 12.1807C2.04958 12.1807 2.41951 12.3307 2.72949 12.6406C3.02949 12.9406 3.18945 13.3205 3.18945 13.7705C3.18945 14.2205 3.03949 14.5904 2.72949 14.9004C2.41951 15.2103 2.04957 15.3604 1.59961 15.3604L1.58984 15.3506C1.13993 15.3506 0.769926 15.2005 0.459961 14.8906C0.149965 14.5806 0.00976958 14.2205 0.00976562 13.7705C0.00976562 13.3205 0.159783 12.9506 0.469727 12.6406C0.779693 12.3307 1.14968 12.1807 1.59961 12.1807ZM7.67969 12.1709C8.12969 12.1709 8.49957 12.3209 8.80957 12.6309C9.11951 12.9408 9.26953 13.3108 9.26953 13.7607C9.26947 14.2106 9.11951 14.5807 8.80957 14.8906C8.4996 15.2005 8.12961 15.3506 7.67969 15.3506C7.22976 15.3506 6.85977 15.2005 6.5498 14.8906C6.23986 14.5807 6.0899 14.2106 6.08984 13.7607C6.08984 13.3108 6.23991 12.9408 6.5498 12.6309C6.85979 12.3209 7.22972 12.1709 7.67969 12.1709ZM13.7598 12.1709C14.2098 12.1709 14.5797 12.3209 14.8896 12.6309C15.1996 12.9408 15.3496 13.3108 15.3496 13.7607C15.3496 14.2106 15.1996 14.5807 14.8896 14.8906C14.5797 15.2005 14.2097 15.3506 13.7598 15.3506C13.3098 15.3506 12.9399 15.2005 12.6299 14.8906C12.3199 14.5807 12.17 14.2106 12.1699 13.7607C12.1699 13.3108 12.32 12.9408 12.6299 12.6309C12.9399 12.3209 13.3098 12.1709 13.7598 12.1709ZM1.58984 6.09082C2.0398 6.09084 2.40975 6.2408 2.71973 6.55078C3.01964 6.85076 3.17969 7.23073 3.17969 7.68066C3.17965 8.13058 3.02969 8.50059 2.71973 8.81055C2.40976 9.1205 2.03978 9.27049 1.58984 9.27051C1.13991 9.27051 0.769934 9.12046 0.459961 8.81055C0.16 8.51059 4.17078e-05 8.13059 0 7.68066C0 7.23069 0.149991 6.86077 0.459961 6.55078C0.759961 6.25078 1.13984 6.09082 1.58984 6.09082ZM7.67969 6.09082C8.12969 6.09082 8.49957 6.24078 8.80957 6.55078C9.11953 6.86077 9.26953 7.23069 9.26953 7.68066C9.26949 8.13058 9.11953 8.50059 8.80957 8.81055C8.4996 9.12046 8.12963 9.27051 7.67969 9.27051C7.22974 9.27049 6.85978 9.12049 6.5498 8.81055C6.23985 8.50059 6.08988 8.13058 6.08984 7.68066C6.08984 7.23072 6.23989 6.86076 6.5498 6.55078C6.85979 6.2408 7.22972 6.09084 7.67969 6.09082ZM13.7598 6.09082C14.2098 6.09082 14.5797 6.24078 14.8896 6.55078C15.1996 6.86076 15.3496 7.23071 15.3496 7.68066C15.3496 8.13058 15.1996 8.50059 14.8896 8.81055C14.5797 9.12049 14.2097 9.27051 13.7598 9.27051C13.3098 9.27051 12.9399 9.12048 12.6299 8.81055C12.3199 8.50059 12.17 8.13058 12.1699 7.68066C12.1699 7.2307 12.3199 6.86076 12.6299 6.55078C12.9399 6.24078 13.3098 6.09082 13.7598 6.09082ZM1.59961 0.0205078C2.04954 0.0205078 2.41952 0.170565 2.72949 0.480469C3.02946 0.780438 3.18942 1.16041 3.18945 1.61035C3.18945 2.06035 3.03949 2.43023 2.72949 2.74023C2.42949 3.04023 2.04961 3.2002 1.59961 3.2002L1.58984 3.18066C1.13995 3.18066 0.769918 3.03056 0.459961 2.7207C0.149983 2.41073 0.00978587 2.05054 0.00976562 1.60059C0.00976562 1.15059 0.15973 0.780468 0.469727 0.480469C0.769694 0.180501 1.14967 0.0205425 1.59961 0.0205078ZM13.7598 0.0205078C14.2097 0.0205099 14.5797 0.170514 14.8896 0.480469C15.1996 0.790437 15.3496 1.16041 15.3496 1.61035C15.3496 2.06032 15.1996 2.43025 14.8896 2.74023C14.5897 3.04023 14.2098 3.20019 13.7598 3.2002V3.18066C13.3098 3.18066 12.9398 3.03059 12.6299 2.7207C12.32 2.41078 12.17 2.04067 12.1699 1.59082C12.1699 1.1409 12.32 0.770905 12.6299 0.460938C12.9399 0.150937 13.3098 0.0205078 13.7598 0.0205078ZM7.67969 0C8.12969 0 8.49957 0.150937 8.80957 0.460938C9.10949 0.760917 9.26953 1.14089 9.26953 1.59082C9.26946 2.04067 9.11949 2.41078 8.80957 2.7207C8.5096 3.02057 8.12959 3.18066 7.67969 3.18066C7.22978 3.18065 6.85976 3.0306 6.5498 2.7207C6.23988 2.41078 6.08992 2.04067 6.08984 1.59082C6.08984 1.14092 6.23994 0.770897 6.5498 0.460938C6.84979 0.160953 7.22972 1.62711e-05 7.67969 0Z" fill="var(--fill-0, #3D3935)"/>
<path d="M1.59961 12.1807C2.04958 12.1807 2.41951 12.3307 2.72949 12.6406C3.02949 12.9406 3.18945 13.3205 3.18945 13.7705C3.18945 14.2205 3.03949 14.5904 2.72949 14.9004C2.41951 15.2103 2.04957 15.3604 1.59961 15.3604L1.58984 15.3506C1.13993 15.3506 0.769926 15.2005 0.459961 14.8906C0.149965 14.5806 0.00976958 14.2205 0.00976562 13.7705C0.00976562 13.3205 0.159783 12.9506 0.469727 12.6406C0.779693 12.3307 1.14968 12.1807 1.59961 12.1807ZM7.67969 12.1709C8.12969 12.1709 8.49957 12.3209 8.80957 12.6309C9.11951 12.9408 9.26953 13.3108 9.26953 13.7607C9.26947 14.2106 9.11951 14.5807 8.80957 14.8906C8.4996 15.2005 8.12961 15.3506 7.67969 15.3506C7.22976 15.3506 6.85977 15.2005 6.5498 14.8906C6.23986 14.5807 6.0899 14.2106 6.08984 13.7607C6.08984 13.3108 6.23991 12.9408 6.5498 12.6309C6.85979 12.3209 7.22972 12.1709 7.67969 12.1709ZM13.7598 12.1709C14.2098 12.1709 14.5797 12.3209 14.8896 12.6309C15.1996 12.9408 15.3496 13.3108 15.3496 13.7607C15.3496 14.2106 15.1996 14.5807 14.8896 14.8906C14.5797 15.2005 14.2097 15.3506 13.7598 15.3506C13.3098 15.3506 12.9399 15.2005 12.6299 14.8906C12.3199 14.5807 12.17 14.2106 12.1699 13.7607C12.1699 13.3108 12.32 12.9408 12.6299 12.6309C12.9399 12.3209 13.3098 12.1709 13.7598 12.1709ZM1.58984 6.09082C2.0398 6.09084 2.40975 6.2408 2.71973 6.55078C3.01964 6.85076 3.17969 7.23073 3.17969 7.68066C3.17965 8.13058 3.02969 8.50059 2.71973 8.81055C2.40976 9.1205 2.03978 9.27049 1.58984 9.27051C1.13991 9.27051 0.769934 9.12046 0.459961 8.81055C0.16 8.51059 4.17078e-05 8.13059 0 7.68066C0 7.23069 0.149991 6.86077 0.459961 6.55078C0.759961 6.25078 1.13984 6.09082 1.58984 6.09082ZM7.67969 6.09082C8.12969 6.09082 8.49957 6.24078 8.80957 6.55078C9.11953 6.86077 9.26953 7.23069 9.26953 7.68066C9.26949 8.13058 9.11953 8.50059 8.80957 8.81055C8.4996 9.12046 8.12963 9.27051 7.67969 9.27051C7.22974 9.27049 6.85978 9.12049 6.5498 8.81055C6.23985 8.50059 6.08988 8.13058 6.08984 7.68066C6.08984 7.23072 6.23989 6.86076 6.5498 6.55078C6.85979 6.2408 7.22972 6.09084 7.67969 6.09082ZM13.7598 6.09082C14.2098 6.09082 14.5797 6.24078 14.8896 6.55078C15.1996 6.86076 15.3496 7.23071 15.3496 7.68066C15.3496 8.13058 15.1996 8.50059 14.8896 8.81055C14.5797 9.12049 14.2097 9.27051 13.7598 9.27051C13.3098 9.27051 12.9399 9.12048 12.6299 8.81055C12.3199 8.50059 12.17 8.13058 12.1699 7.68066C12.1699 7.2307 12.3199 6.86076 12.6299 6.55078C12.9399 6.24078 13.3098 6.09082 13.7598 6.09082ZM1.59961 0.0205078C2.04954 0.0205078 2.41952 0.170565 2.72949 0.480469C3.02946 0.780438 3.18942 1.16041 3.18945 1.61035C3.18945 2.06035 3.03949 2.43023 2.72949 2.74023C2.42949 3.04023 2.04961 3.2002 1.59961 3.2002L1.58984 3.18066C1.13995 3.18066 0.769918 3.03056 0.459961 2.7207C0.149983 2.41073 0.00978587 2.05054 0.00976562 1.60059C0.00976562 1.15059 0.15973 0.780468 0.469727 0.480469C0.769694 0.180501 1.14967 0.0205425 1.59961 0.0205078ZM13.7598 0.0205078C14.2097 0.0205099 14.5797 0.170514 14.8896 0.480469C15.1996 0.790437 15.3496 1.16041 15.3496 1.61035C15.3496 2.06032 15.1996 2.43025 14.8896 2.74023C14.5897 3.04023 14.2098 3.20019 13.7598 3.2002V3.18066C13.3098 3.18066 12.9398 3.03059 12.6299 2.7207C12.32 2.41078 12.17 2.04067 12.1699 1.59082C12.1699 1.1409 12.32 0.770905 12.6299 0.460938C12.9399 0.150937 13.3098 0.0205078 13.7598 0.0205078ZM7.67969 0C8.12969 0 8.49957 0.150937 8.80957 0.460938C9.10949 0.760917 9.26953 1.14089 9.26953 1.59082C9.26946 2.04067 9.11949 2.41078 8.80957 2.7207C8.5096 3.02057 8.12959 3.18066 7.67969 3.18066C7.22978 3.18065 6.85976 3.0306 6.5498 2.7207C6.23988 2.41078 6.08992 2.04067 6.08984 1.59082C6.08984 1.14092 6.23994 0.770897 6.5498 0.460938C6.84979 0.160953 7.22972 1.62711e-05 7.67969 0Z" fill="var(--fill-1, black)" fill-opacity="0.2"/>
</g>
</svg>
