<svg width="1530" height="820" viewBox="0 0 1530 820" fill="none" xmlns="http://www.w3.org/2000/svg">
<g opacity="0.4">
<path d="M51.0323 97.5479C58.2456 108.946 63.7942 121.582 70.6786 133.316C86.3343 159.999 114.424 200.852 144.783 210.294C174.292 219.474 200.029 208.49 228.768 205.974C245.508 204.506 246.182 206.781 260.018 213.132C280.367 222.471 304.047 216.558 324.686 211.188C358.797 202.312 387.911 192.078 403.901 157.486C412.165 139.603 420.381 94.0806 448.589 118.398C458.886 127.273 460.328 138.324 466.358 149.474C473.921 163.456 488.567 169.051 497.147 182.526C505.511 195.662 505.759 212.36 510.603 226.948C531.445 289.703 609.739 265.207 659.087 279.6C697.159 290.704 747.022 311.806 787.019 303.307C805.742 299.326 813.677 282.556 829.345 272.924C849.421 260.58 871.383 262.785 891.494 253.283C904.932 246.935 927.552 226.865 941.325 242.967C951.072 254.362 947.051 274.875 938.636 286C935.577 290.043 930.299 293.077 929.557 298.857C928.305 308.6 938.077 315.561 933.015 328.279C929.699 336.616 907.121 356.252 899.695 364.267C835.451 433.609 791.978 512.654 811.599 611.601C824.63 677.314 895.266 698.391 951.632 710.683C1063.76 735.137 1148.91 718.301 1247.69 663.27C1272.55 649.418 1284.28 642.145 1296.38 614.749C1303.54 598.535 1304.46 585.71 1324.98 581.754C1341.97 578.48 1356.27 581.911 1375 576.51C1413.64 565.376 1431.59 545.515 1460.72 520.905C1472.88 510.63 1474.78 514.449 1489.01 513.338C1508.76 511.798 1504.58 495.65 1506.61 480.657C1506.89 478.569 1507.32 475.653 1508.97 474.296C1511.73 473.074 1516.68 486.853 1518.03 489.342C1519.67 492.356 1521.69 495.244 1523.85 497.888C1524.35 498.133 1524.33 498.395 1523.83 498.672C1524.37 499.444 1524.36 500.26 1523.77 501.026C1519.17 499.659 1511.38 477.987 1510.05 477.919C1509.23 477.878 1508.89 479.788 1508.79 480.578C1507.74 488.666 1508.5 505.743 1502.17 511.323C1493.81 518.678 1478.25 513.054 1468.76 517.443C1438.92 545.181 1406.89 573.088 1365.81 581.17C1351.24 584.037 1334.95 580.788 1321.27 585.042C1304.62 590.216 1303.49 604.978 1297.05 618.691C1285.09 644.176 1274.16 651.011 1250.75 664.141C1158.51 715.885 1076.72 735.754 970.67 716.804C916.796 707.177 830.24 685.596 812.375 624.632C784.058 528.012 829.678 438.957 891.839 369.556C902.934 357.168 917.214 345.226 927.517 332.865C938.102 320.161 928.725 314.416 927.429 302.274C926.334 292.021 936.439 286.899 940.596 278.442C945.672 268.107 947.441 253.441 939.346 244.115C927.843 230.864 906.854 247.956 895.614 253.668C875.208 264.037 852.799 262.237 832.889 273.498C810.161 286.351 808.601 303.869 778.32 306.881C733.156 311.376 692.293 289.106 650.455 279.514C603.574 268.767 529.328 289.564 509.001 229.264C503.54 213.066 503.554 194.507 493.008 180.402C486.362 171.516 475.468 166.02 468.896 157.748C458.847 145.101 458.826 127.483 443.857 117.616C429.179 107.942 422.632 118.403 416.664 130.9C405.453 154.384 404.396 171.239 382.388 189.21C360.455 207.117 300.245 223.321 272.577 219.398C260.089 217.628 251.293 208.209 239.472 207.696C219.374 206.825 195.42 215.553 174.361 216.195C124.979 217.704 100.092 182.494 75.1751 145.065L50.9162 102.25L51.0324 97.544L51.0323 97.5479Z" fill="#DDE4EE"/>
<path d="M8.27521 124.94C22.1909 141.065 76.3598 216.164 91.6872 230.972C114.852 253.35 134.176 258.668 166.176 254.291C179.871 252.416 195.234 246.864 209.025 248.627C220.936 250.146 233.21 257.846 244.63 260.959C260.916 265.398 278.701 260.771 295.06 257.742C324.502 252.288 380.267 241.367 400.878 218.802C413.942 204.498 425.512 150.787 448.31 188.373C453.559 197.028 460.261 212.065 462.809 221.848C470.015 249.526 457.947 270.934 472.104 300.922C496.89 353.435 555.689 327.628 597.598 321.385C618.459 318.277 626.486 318.641 647 323.499C697.692 335.508 744.688 358.736 797.539 341.284C815.531 335.343 822.971 324.892 837.889 316.828C842.732 314.21 851.608 309.611 855.235 316.189C861.91 328.297 839.253 336.994 837.385 344.461C834.826 354.685 843.446 363.885 835.255 375.191C829.395 383.282 821.093 391.267 814.827 400.026C780.115 448.562 758.728 508.99 745.467 567.327C727.387 646.863 733.511 697.687 799.542 748.167C863.437 797.02 942.914 812.491 1021.31 816.609C1080.44 819.714 1121.36 816.09 1176.91 795.444C1223.39 778.167 1309.79 733.437 1325.82 682.663C1333.78 657.455 1335.21 636.972 1367.85 636.667C1398.42 636.382 1403.73 644.841 1430.39 623.87C1448.33 609.752 1465 592.961 1482.46 578.151C1490.95 570.951 1502.66 565.321 1506.57 554.835C1510.04 545.515 1510.61 520.051 1522.81 539.607C1523.44 539.824 1523.34 540.775 1522.77 541.176C1523.31 541.948 1523.3 542.765 1522.71 543.53C1521.46 542.511 1516.42 532.477 1514.46 533.892C1510.39 542.875 1510.48 555.709 1504.09 563.456C1500.37 567.949 1491.28 573.272 1486.34 577.473C1469.29 591.953 1427.79 634.081 1408.98 638.815C1377.1 646.838 1345.76 622.019 1331.43 667.748C1327.76 679.476 1327.08 687.576 1320.54 698.761C1285.47 758.737 1170.73 806.729 1105.14 816.888C1069.56 822.398 1029.53 819.479 993.541 816.624C921.82 810.938 847.73 790.7 791.14 744.037C726.831 691.004 726.57 635.944 745.827 558.069C762.014 492.611 784.254 434.411 826.278 381.707C832.968 373.312 837.356 373.485 836.84 360.749C836.465 351.51 831.597 347.309 838.917 338.881C842.79 334.423 855.43 326.919 854.488 320.008C853.17 310.344 840.77 317.314 836.342 320.029C823.346 328 816.746 336.345 801.185 341.986C748.637 361.04 702.169 339.134 651.702 326.624C640.72 323.9 628.652 320.406 617.323 320.778C571.224 322.281 501.902 361.028 472.003 304.853C460.994 284.166 462.71 270.198 463.494 247.974C464.198 227.891 457.737 208.382 447.765 191.205C435.88 170.734 429.314 173.33 418.139 192.206C413.205 200.545 409.76 211.287 403.616 218.53C383.411 242.331 330.157 252.93 300.438 258.683C283.711 261.921 263.506 267.073 246.88 263.386C223.907 258.289 217.499 247.597 190.664 251.527C150.701 257.379 127.527 266.357 93.8795 235.753C77.409 220.773 17.2524 138.709 2.64136 121.958L0 112.671L8.27521 124.94Z" fill="#DDE4EE"/>
<path d="M76.8864 21.9265L79.5906 25.2171C88.0338 50.0237 102.35 71.9771 116.643 93.6159C130.668 114.851 147.573 138.801 170.102 151.06C195.662 164.966 215.567 161.931 242.412 156.922C259.708 154.39 273.659 161.243 287.957 169.687C317.549 174.399 354.001 172.281 373.697 145.585C389.634 124.104 401.567 100.332 409.492 74.2719C421.369 39.0153 463.86 63.4255 481.447 80.7409C488.35 92.0326 493.467 104.493 496.796 118.131C500.574 132.855 509.985 138.971 521.893 145.969C526.24 148.895 529.19 153.323 531.281 158.128L538.824 178.577C548.22 198.88 562.293 212.558 584.723 214.877C625.065 219.786 665.015 231.22 704.006 243.114C741.548 253.49 782.253 252.299 815.754 230.729C828.803 222.008 842.359 214.482 856.423 208.154C869.598 205.429 883.072 204.848 896.848 206.405C928.656 208.81 947.26 185.092 964.234 161.503C973.01 146.344 997.235 142.938 994.605 165.926C992.676 175.843 992.017 183.274 994.399 193.515C999.211 204.857 1001.26 216.262 1000.56 227.735C995.884 239.643 990.471 251.269 984.311 262.608C975.998 283.238 980.16 299.001 985.535 319.295C986.85 328.796 984.382 332.204 978.016 338.914C937.213 373.844 898.432 415.097 881.921 468.613C873.124 497.123 866.249 546.972 878.327 574.772C899.713 623.992 975.786 637.792 1023.12 640.707C1080.48 644.238 1155.87 643.77 1207 614.728C1230.51 601.376 1239.35 586.546 1250.05 562.541C1262.42 538.998 1285.51 524.913 1310.94 520.436C1351.03 513.894 1394.96 503.153 1429.8 481.16C1441.45 473.806 1445.81 467.404 1452.15 456.349C1460.37 451.882 1469.44 448.836 1479.39 447.206C1483.03 446.028 1486.68 444.787 1486.73 440.346C1486.58 430.495 1487.36 420.7 1489.08 410.957C1497.2 385.93 1513.2 410.174 1519.34 422.238C1522.04 425.202 1524.11 428.402 1525.54 431.831L1525.52 432.615C1525.46 435.223 1525.39 437.851 1525.33 440.456C1514.99 433.087 1510.31 419.594 1502.92 410.417C1502.17 409.486 1499.88 407.364 1498.77 407.594C1494.39 408.497 1495.06 439.815 1493.34 445.279C1489.06 458.945 1461.13 454.858 1455.69 463.767C1454.68 465.432 1454.52 467.606 1453.43 469.393C1438.86 493.098 1382.02 512.474 1355.79 519.496C1320.61 528.917 1289.46 524.195 1263.47 555.953C1249.08 573.532 1247.61 593.199 1229.68 608.348C1188.75 642.938 1117.13 650.042 1065.72 650.272C997.279 650.581 867.74 639.052 864.769 546.379C862.015 460.423 895.422 405.09 954.942 349.07C960.234 344.09 976.711 332.03 978.152 325.593C979.311 320.412 975.19 310.215 974.108 304.585C968.893 277.498 975.029 261.787 987.019 238.504C992.866 227.149 995.809 226.101 992.317 211.988C989.3 199.792 983.738 192.21 985.055 178.449C985.415 174.679 989.462 160.019 986.218 157.781C985.196 157.079 979.551 157.438 978.165 158.198C971.636 161.775 959.353 181.773 953.15 188.589C943.576 199.111 929.538 209.568 915.627 212.842C897.15 217.191 877.676 209.951 859.644 214.932C850.592 217.433 839.017 226.853 830.28 231.816C802.434 247.626 783.196 256.657 750.254 257.291C709.208 258.081 671.201 239.776 631.62 230.958C612.34 226.663 592.631 224.904 573.728 221.003C553.276 216.783 536.3 194.908 529.105 176.041C525.847 167.492 526.044 158.863 518.258 152.826C509.407 145.965 503.219 146.062 496.339 134.944C481.635 111.183 489.816 90.706 460.961 74.1685C449.536 67.6187 430.983 57.6992 420.507 69.5623C413.218 77.8174 405.851 106.464 399.739 118.981C376.828 165.897 350.413 181.789 298.247 179.001C282.946 178.183 279.95 172.299 267.525 167.472C243.238 158.039 222.376 171.524 198.85 168.689C154.285 163.314 128.134 125.467 105.453 90.4241C91.9145 69.5081 76.9714 46.0347 70.7132 21.7614C72.7673 21.8085 74.8324 21.8755 76.8864 21.9265Z" fill="#DDE4EE"/>
<path d="M1108.81 10.0331C1090.51 26.2036 1080.17 53.2737 1074.76 76.974C1068.61 103.943 1068.37 150.157 1072.53 177.48C1076.07 200.76 1105.08 234.29 1124.9 245.701C1144.83 257.184 1196.43 265.65 1219.56 265.178C1254.1 264.467 1292.37 244.253 1303.18 209.189C1314.22 173.385 1296.76 143.167 1338.06 124.8C1364.31 113.131 1397.86 117.988 1424.19 127.668C1441.14 133.9 1455.37 145.407 1471.36 153.553C1471.38 153.816 1471.39 154.075 1471.41 154.339C1471.53 156.43 1471.66 158.533 1471.79 160.624C1466.77 160.291 1461.87 158.254 1457.09 154.514C1432.92 137.38 1406.3 126.431 1376.68 125.777C1348.86 125.163 1315.93 135.196 1315.95 168.072C1316.45 214.68 1299.76 252.028 1253.24 266.235C1217.75 277.08 1165.6 271.488 1131.36 257.453C1103.17 245.898 1068.77 206.921 1064.69 175.713C1059.96 139.538 1060.82 92.4568 1072.21 57.7793C1076.45 44.8929 1086.09 21.9247 1095.34 12.5236C1096.28 11.5707 1097.57 11.0894 1098.79 10.644L1099.56 10.597C1102.63 10.4097 1105.73 10.2206 1108.8 10.0333L1108.81 10.0331Z" fill="#DDE4EE"/>
<path d="M1194.3 4.82127C1192.62 17.8886 1181.41 25.4496 1169.6 28.1943C1161.37 30.1047 1155.06 28.8133 1146.64 31.9624C1119.87 41.9724 1104.84 73.2544 1102.81 100.835C1100.77 128.464 1108.5 181.21 1128.11 201.713C1156 230.87 1231.44 227.084 1258.93 198.904C1275.38 182.043 1273.23 162.885 1281.27 142.556C1306.6 78.5485 1370.08 81.1026 1424.77 101.853C1439.9 107.598 1454.72 114.723 1469.47 121.355C1469.51 122.141 1469.56 122.927 1469.61 123.714C1440.58 111.167 1411.51 96.231 1379.77 92.3677C1341.5 87.7114 1308.63 95.667 1288.94 131.648C1271.18 164.095 1281.72 194.712 1241.63 213.737C1206.61 230.358 1139.34 230.36 1117.51 191.249C1095.68 152.12 1090.74 74.5803 1126.63 42.1121C1139.99 30.0204 1146.11 29.5602 1162.84 27.3048C1175.62 25.5778 1189.75 19.2988 1192 4.96944C1192.77 4.92244 1193.54 4.87544 1194.31 4.82843L1194.3 4.82127Z" fill="#DDE4EE"/>
<path d="M1231.28 2.57003C1236.78 29.1429 1248.33 61.949 1213.79 71.1334C1188.53 77.8491 1165.94 69.6371 1150.56 97.2081C1136.91 121.674 1135.24 151.908 1166.42 160.989C1201.88 171.316 1233.18 160.313 1243.34 122.397C1247.05 108.586 1244.35 96.4687 1254.78 85.1644C1268.34 70.464 1313.54 45.3679 1332.98 42.8869C1362.7 39.0954 1379.37 46.3942 1405.59 56.7762C1425.9 64.819 1446.52 72.1327 1467 79.7197C1467.04 80.5061 1467.09 81.2926 1467.14 82.079C1450.66 76.0121 1433.99 70.281 1417.61 63.9359C1386.31 51.8075 1368.25 40.6236 1332.35 45.2933C1313.54 47.7399 1279.17 67.9325 1263.97 80.0927C1245.46 94.8937 1250.79 100.978 1245.77 121.621C1235.47 163.982 1197.62 175.709 1159.67 161.196C1133.18 151.06 1136.6 120.753 1147.03 99.2308C1162.97 66.357 1185.82 76.7872 1213.8 68.915C1246.22 59.7889 1233.94 27.4452 1228.96 2.71132C1229.73 2.6643 1230.5 2.61728 1231.27 2.57026L1231.28 2.57003Z" fill="#DDE4EE"/>
<path d="M1273.69 0.00045379C1268.09 14.4861 1261.18 38.8243 1286.47 29.8106C1308.97 21.7886 1326.87 6.62237 1352.34 3.10641C1392.35 -2.4167 1427.82 26.3549 1464.54 37.3266C1464.59 38.1141 1464.63 38.9016 1464.68 39.6891C1437.71 32.1409 1413.03 14.9209 1386.08 7.92101C1341.12 -3.7558 1324.76 18.5121 1287.79 31.7568C1260.64 41.4857 1263.88 17.379 1271.38 0.141456C1272.15 0.0943768 1272.92 0.0472974 1273.69 0.00021815L1273.69 0.00045379Z" fill="#DDE4EE"/>
<path d="M31.1482 76.8066C35.8581 90.8962 44.9439 102.717 53.4961 114.538C74.9572 144.209 95.6118 166.703 132.703 174.595C171.655 182.882 193.25 160.237 227.487 162.008C234.682 162.382 242.415 166.36 249.876 167.31C282.232 171.416 291.668 148.04 302.51 122.624C311.159 102.357 318.559 81.115 321.475 59.0811L323.787 58.9399C321.53 76.136 316.538 92.8475 310.455 108.986C298.25 141.356 286.996 176.385 245.66 168.816C227.178 165.431 224.475 162.137 204.271 166.881C178.214 172.997 164.017 182.673 135.356 177.426C96.912 170.387 75.2662 148.19 52.9148 117.732C43.6027 105.041 33.8155 92.166 28.8406 76.9475C29.6111 76.9005 30.3816 76.8534 31.1521 76.8064L31.1482 76.8066Z" fill="#DDE4EE"/>
<path d="M61.9626 74.967C77.811 104.406 98.8434 132.731 132.946 139.898C164.162 146.456 170.182 135.203 194.17 122.818C221.832 108.538 249.538 133.703 267.754 97.1597C273.006 86.6217 276.196 73.6307 276.825 61.8465C277.596 61.7994 278.366 61.7524 279.137 61.7053C277.585 82.2623 269.135 113.256 247.096 119.377C233.442 123.169 218.976 117.429 205.214 120.908C192.176 124.204 181.318 135.7 168.322 140.341C144.054 149.011 117.27 140.599 97.4429 125.32C80.6332 112.374 70.3107 92.8459 58.8844 75.1549C59.9131 75.0921 60.9378 75.0295 61.9665 74.9667L61.9626 74.967Z" fill="#DDE4EE"/>
<path d="M1066.84 47.6119C1062.75 58.3478 1058.03 68.8624 1053.06 79.2015C1039.25 107.957 1018.5 132.7 1025.03 166.562C1026.61 174.777 1032.59 187.178 1032.33 194.747C1031.9 207.054 1022.71 229.854 1019.76 243.407C1017.06 255.838 1013.4 272.798 1015.58 285.285C1019.36 306.975 1043.16 312.964 1021.08 337.494C992.344 369.426 949.855 388.867 930.026 430.995C914.288 464.434 908.021 514.98 915.59 551.255C922.807 585.827 982.282 591.139 1010.48 592.947C1057.34 595.954 1140.69 596.675 1182.99 576.093C1206.21 564.793 1201.35 555.216 1212.27 535.72C1236.47 492.511 1290.09 476.094 1334.51 464.32C1359.35 457.735 1417.89 448.138 1434.05 429.061C1438.7 423.574 1441.21 412.096 1446.13 408.943C1453.73 404.061 1465.28 413.558 1470.5 400.388C1476.84 384.416 1469.23 364.132 1468.85 347.917C1468.75 343.376 1469.69 335.409 1475.72 335.825C1486.12 336.544 1502.03 363.27 1508.85 371.354C1514.24 377.754 1520.76 383.131 1526.57 389.102L1526.55 389.888C1526.53 390.673 1526.51 391.458 1526.49 392.244C1519.51 385.51 1511.93 378.824 1505.76 371.271C1497.85 361.59 1491.86 350.16 1482.17 341.947C1473.54 334.639 1470.88 338.643 1471.15 348.764C1471.57 364.922 1479.57 387.149 1471.95 402.749C1465.59 415.782 1454.66 406.279 1447.26 410.969C1443.39 413.427 1441.49 421.809 1439.28 425.794C1426.37 449.029 1364.71 458.747 1339.9 465.254C1291.59 477.922 1232.77 494.557 1210.27 544.865C1203.23 560.599 1204.82 566.583 1188.17 576.004C1146.29 599.698 1056.36 597.818 1008.92 594.454C978.971 592.328 920.804 588.543 913.277 551.193C905.471 512.471 912.856 454.018 933.425 420.13C950.948 391.266 979.844 371.354 1004.55 349.614C1011.28 343.695 1028.29 329.733 1028.35 320.469C1028.43 310.459 1018.92 302.004 1015.61 292.925C1009.92 277.329 1014.16 259.261 1017.57 243.478C1020.53 229.741 1029.54 207.175 1030.05 194.725C1030.37 186.804 1023.8 174.069 1022.45 165.223C1017.05 130.032 1038.96 103.686 1053.19 73.7116C1057.26 65.1443 1061.08 56.4051 1064.52 47.5576L1066.83 47.6196L1066.84 47.6119Z" fill="#DDE4EE"/>
<path d="M1095.45 48.2507C1085.64 65.3406 1083.24 84.1258 1078.28 102.784C1073.97 119.008 1067.33 135.42 1065.82 152.289C1064.72 164.595 1066.51 177.277 1065.75 189.274C1063.88 218.532 1035.37 260.952 1055.92 288.346C1063.61 298.598 1080.07 301.136 1083.71 311.306C1087.45 321.738 1078.33 325.922 1073.12 333.321C1053.76 360.814 1081.46 386.137 1106.23 394.539C1140.18 406.063 1194.48 406.365 1230.64 406.873C1268.96 407.407 1312.49 407.759 1349.64 397.297C1374 390.437 1374.84 370.793 1393.09 361.625C1401.69 357.306 1414.15 355.875 1418.32 345.93C1423.2 334.274 1427.1 311.424 1427.63 298.706C1428.19 285.395 1422.9 278.154 1439.01 274.617C1472.01 267.368 1475.72 287.417 1499.36 301.391C1507.89 306.432 1518.78 310.601 1528.47 311.972C1528.45 312.757 1528.43 313.542 1528.41 314.328C1511.62 311.957 1497.3 303.552 1484.21 293.034C1475.73 286.211 1468.75 276.989 1457.14 275.511C1452.13 274.874 1434.41 276.211 1431.26 280.024C1428.05 283.906 1429.44 302.589 1428.89 308.911C1428.15 317.443 1422.61 346.453 1417.36 352.154C1409.43 360.758 1394.12 360.718 1384.12 371.364C1371.6 384.712 1369.7 394.054 1350.19 399.496C1300.16 413.459 1232.16 410.531 1180.45 407.14C1149.26 405.092 1105.06 404.259 1080.67 382.446C1064.94 368.381 1057.51 351.608 1070.82 332.474C1077.38 323.056 1090.52 316.855 1076.23 305.508C1065.72 297.161 1056.35 298.258 1049.9 282.677C1040.05 258.936 1052.98 232.312 1059.58 210.057C1066.59 186.406 1060.9 164.084 1065.63 139.999C1068.27 126.567 1073.24 112.907 1076.82 99.6057C1081.55 82.0181 1083.6 64.2412 1093.14 48.1928L1095.46 48.2548L1095.45 48.2507Z" fill="#DDE4EE"/>
<path d="M1122.49 48.9344C1117.92 66.0179 1110.96 82.44 1106.02 99.3761C1098.37 125.608 1100.42 146.436 1097.8 172.752C1094.34 207.695 1082.52 228.996 1099.8 263.544C1109.75 283.423 1139.96 327.384 1159.11 337.277C1166.75 341.217 1177.52 343.501 1185.98 345.047C1221.93 351.634 1277.13 360.516 1312 351.279C1351.92 340.704 1391.45 299.058 1396.97 256.941C1397.97 249.292 1395.86 239.282 1403.15 233.749C1414.58 225.06 1451.33 233.173 1464.82 237.391C1487.77 244.57 1506.02 260.504 1529.62 265.605C1529.6 266.391 1529.58 267.176 1529.56 267.961C1505.94 262.941 1487.69 246.972 1464.76 239.747C1450.88 235.372 1425.26 229.776 1411.28 232.792C1396.22 236.043 1400.29 251.307 1398.27 263.175C1393.05 293.825 1363.91 328.525 1337.62 343.267C1307.56 360.124 1275.23 359.192 1242 355.298C1220.41 352.768 1177.45 348.653 1159.07 339.617C1137.7 329.11 1103.25 279.259 1094.06 256.838C1082.26 228.066 1092.45 202.97 1095.45 174.264C1097.42 155.363 1096.19 136.007 1099.29 117.144C1103.05 94.1743 1114.67 71.5559 1120.18 48.8763L1122.49 48.9383L1122.49 48.9344Z" fill="#DDE4EE"/>
<path d="M447.124 50.8991C447.383 50.8834 447.637 50.8678 447.895 50.8521C453.952 56.995 462.112 64.4038 470.034 67.7985C478.789 71.5492 487.855 68.6179 489.216 81.8686C490.379 93.1803 485.001 103.098 490.741 114.585C497.721 128.547 526.332 163.491 538.696 172.847C549.8 181.253 554.004 178.95 566.422 181.245C613.039 189.86 681.01 210.904 725.335 186.992C732.103 183.34 743.362 172.332 750.819 172.943C752.724 173.099 754.145 174.549 755.803 174.803C761.478 175.681 767.022 169.864 772.439 167.871C790.072 161.379 809.705 168.735 827.649 165.755C869.598 158.794 877.903 129.502 896.824 97.4174C902.122 88.4324 909.198 79.7417 913.936 70.4987C921.685 55.3844 926.414 36.9789 933.065 21.2247L935.377 21.0835C928.611 37.6979 923.355 57.2968 915.18 73.1124C911.241 80.7268 905.051 88.1351 900.582 95.612C883.376 124.385 876.674 151.071 842.506 163.58C818.11 172.511 803.973 164.661 781.467 167.86C772.488 169.135 761.641 178.38 755.16 177.228C753.734 176.975 752.762 175.668 751.618 175.422C745.088 174.016 735.891 183.061 730.451 186.419C684.942 214.499 613.59 192.394 564.69 183.243C560.083 182.383 554.87 182.614 550.64 181.782C537.022 179.107 517.561 155.053 508.972 144.033C502.993 136.365 487.469 116.818 486.123 108.133C484.708 98.9889 489.821 81.9699 484.492 75.5179C481.422 71.8031 476.603 72.4845 472.303 71.0685C461.399 67.4767 452.679 58.3248 444.039 51.0876L447.121 50.8994L447.124 50.8991Z" fill="#DDE4EE"/>
<path d="M520.306 46.4656C524.477 57.9573 524.099 71.0465 529.035 82.2623C532.841 90.9117 548.245 102.464 556.114 108.246C610.623 148.298 662.493 150.677 726.94 136.408C747.662 131.82 763.601 121.901 785.726 123.56C802.142 124.794 815.938 131.734 832.356 123.924C846.566 117.161 848.945 103.851 855.229 91.0446C867.196 66.6468 890.699 48.111 902.295 23.1314L905.378 22.9431C895.582 42.6843 879.929 58.2633 867.191 75.8215C848.949 100.962 851.563 130.309 812.44 129.763C803.763 129.641 794.611 126.625 785.85 125.939C764.26 124.255 751.926 132.701 732.326 137.557C664.917 154.259 606.838 150.501 550.633 106.996C543.99 101.855 531.255 91.9964 527.639 84.7103C521.946 73.2365 522.619 58.5094 517.994 46.6029C518.765 46.5558 519.535 46.5088 520.306 46.4617L520.306 46.4656Z" fill="#DDE4EE"/>
<path d="M585.016 42.5786L585.787 42.5315C607.935 68.8312 645.294 76.4059 677.935 77.2141C699.952 77.7583 721.662 73.6945 743.427 73.1865C761.944 72.7543 801.054 82.7725 815.771 68.7715C822.945 61.9464 823.697 49.5466 827.495 40.658C829.468 36.0372 832.697 31.9841 834.564 27.3223L835.334 27.2752C837.893 27.1188 840.478 26.9607 843.036 26.8043L843.069 29.0208C836.845 37.686 832.439 47.5174 829.851 58.5188C822.768 83.4698 799.955 84.4848 777.694 83.8804C751.46 80.8021 725.475 81.6195 699.191 83.9501C656.26 86.1042 609.169 81.9678 579.072 46.6315C578.718 46.2142 578.544 45.6238 578.375 44.9975C578.206 44.3711 578.13 43.6837 578.089 43.0021C580.393 42.8612 582.716 42.7192 585.02 42.5783L585.016 42.5786Z" fill="#DDE4EE"/>
<path d="M640.477 39.2211L641.247 39.1739C659.855 48.1718 680.392 52.0153 700.743 54.2878C719.38 56.3683 764.692 62.2335 780.727 57.1659C793.312 53.1877 799.476 40.6056 804.533 29.1871L806.845 29.0457C801.272 42.826 795.205 55.3349 780.103 59.5818C763.472 64.2586 725.615 59.0887 707.007 57.1686C682.915 54.6819 658.309 50.9645 636.627 39.4565C637.91 39.378 639.193 39.2995 640.477 39.2211Z" fill="#DDE4EE"/>
<path d="M549.579 44.714C548.486 59.0354 555.573 65.2631 565.599 72.9558C595.881 96.1949 644.658 116.889 682.882 109.971C709.358 105.179 726.713 96.5401 755.576 96.1518C774.896 95.8882 803.003 102.088 820.504 95.3739C837.914 88.6926 842.197 65.5507 851.546 50.5153C857.188 41.4382 864.73 33.8579 870.746 25.09C871.004 25.0742 871.259 25.0587 871.517 25.0429L873.828 24.9016C866.791 35.0245 858.099 43.7345 851.786 54.4536C840.44 73.7065 839.211 95.7288 812.993 99.7385C794.7 102.537 775.667 98.1734 757.264 98.4245C729.184 98.8044 712.769 105.955 686.801 111.285C644.946 119.879 592.682 98.4342 560.118 71.7135C551.06 64.2819 546.794 57.3204 547.275 44.8587C548.046 44.8116 548.816 44.7646 549.587 44.7175L549.579 44.714Z" fill="#DDE4EE"/>
<path d="M92.0059 73.2059C92.264 73.1901 92.5183 73.1746 92.7765 73.1588C103.737 83.3517 124.259 85.3817 138.742 85.3782C162.758 85.3732 191.12 80.9095 210.623 65.9462C210.881 65.9304 211.135 65.9148 211.393 65.899C212.422 65.836 213.447 65.7733 214.476 65.7103C191.592 85.0416 154.643 89.4884 125.794 86.8556C113.486 85.7323 98.2526 83.1529 89.6978 73.3472C90.4684 73.3 91.2391 73.2529 92.0097 73.2057L92.0059 73.2059Z" fill="#DDE4EE"/>
<path d="M1066.59 480.797C1053.32 467.514 1014.49 459.761 1012.71 486.815C1011.24 509.009 1046.67 514.267 1062.39 510.17C1064.42 509.639 1068.49 507.984 1069.93 506.561C1076.63 499.917 1072.56 486.77 1066.59 480.797ZM1062.43 507.802C1050.89 511.111 1031.36 508.813 1021.71 501.162C1009.93 491.82 1013.72 473.23 1029.16 471.381C1040.93 469.971 1056.3 473.883 1064.97 482.368C1072.7 489.936 1074.71 504.273 1062.43 507.802ZM1066.59 480.797C1053.32 467.514 1014.49 459.761 1012.71 486.815C1011.24 509.009 1046.67 514.267 1062.39 510.17C1064.42 509.639 1068.49 507.984 1069.93 506.561C1076.63 499.917 1072.56 486.77 1066.59 480.797ZM1062.43 507.802C1050.89 511.111 1031.36 508.813 1021.71 501.162C1009.93 491.82 1013.72 473.23 1029.16 471.381C1040.93 469.971 1056.3 473.883 1064.97 482.368C1072.7 489.936 1074.71 504.273 1062.43 507.802ZM1155.44 443.252C1131.69 439.222 1103.78 438.844 1082.44 427.18C1059.55 414.669 1034.22 388.579 1006.41 391.441C964.551 395.754 933.704 474.42 938.073 511.451C943.816 560.134 1004.51 570.09 1043.55 568.157C1071.22 566.788 1127.08 559.523 1150.26 545.428C1170.2 533.312 1187.64 504.479 1193.1 481.723C1201.29 447.609 1181.41 447.651 1155.44 443.252ZM1185.09 497.316C1162.73 549.764 1131.17 554.42 1079.78 561.82C1038.56 567.752 977.173 572.258 948.613 534.218C927.34 505.888 949.223 446.796 968.154 421.388C976.231 410.542 991.695 395.314 1005.58 393.78C1035.54 390.473 1061.43 420.14 1086.95 432.019C1114.97 445.056 1153.69 440.349 1181.67 450.871C1200.26 457.866 1190.8 483.936 1185.09 497.316ZM1107.72 467.889C1077.89 459.934 1047.2 426.115 1017.16 427.079C994.387 427.809 971.076 457.37 968.873 479.353C962.654 541.292 1032.14 539.627 1074.39 535.105C1095.76 532.821 1136.67 522.049 1141.31 496.372C1145.62 472.537 1123.04 471.972 1107.72 467.889ZM1129.67 505.657C1112.24 526.741 1074.62 530.264 1049.15 530.647C1012.24 531.207 969.411 527.095 975.124 477.988C977.159 460.495 997.749 435.178 1015.42 433.314C1039.97 430.726 1067.99 458.208 1088.94 467.646C1101.18 473.159 1112.1 473.655 1123.93 477.523C1138.39 482.251 1138.53 494.935 1129.67 505.657ZM1066.59 480.797C1053.32 467.514 1014.49 459.761 1012.71 486.815C1011.24 509.009 1046.67 514.267 1062.39 510.17C1064.42 509.639 1068.49 507.984 1069.93 506.561C1076.63 499.917 1072.56 486.77 1066.59 480.797ZM1062.43 507.802C1050.89 511.111 1031.36 508.813 1021.71 501.162C1009.93 491.82 1013.72 473.23 1029.16 471.381C1040.93 469.971 1056.3 473.883 1064.97 482.368C1072.7 489.936 1074.71 504.273 1062.43 507.802Z" fill="#DDE4EE"/>
</g>
</svg>
