<svg width="24" height="24" viewBox="0 0 24 24" fill="none" xmlns="http://www.w3.org/2000/svg">
<path d="M14.7787 0.161194L18.863 5.10524L12.1401 4.44639L14.7787 0.161194Z" fill="#787051"/>
<path d="M14.8922 2.30624C14.7645 2.2189 14.5987 2.21047 14.4628 2.28441L9.86324 4.78689C9.59343 4.93369 9.57335 5.31349 9.82618 5.48793L23.354 14.8208C23.6273 15.0093 23.9999 14.8137 23.9999 14.4816V8.75257C23.9999 8.61654 23.9328 8.48928 23.8205 8.41249L14.8922 2.30624Z" fill="url(#paint0_linear_15161_508286)"/>
<path d="M23.8606 14.7784L18.9702 18.7551L19.5532 12.14L23.8606 14.7784Z" fill="#787051"/>
<path d="M21.6939 14.8919C21.7813 14.7642 21.7897 14.5983 21.7158 14.4624L19.213 9.86329C19.0662 9.59349 18.6865 9.57343 18.512 9.82625L9.17906 23.354C8.9905 23.6273 9.18614 23.9999 9.51819 23.9999H15.2473C15.3833 23.9999 15.5106 23.9328 15.5874 23.8205L21.6939 14.8919Z" fill="url(#paint1_linear_15161_508286)"/>
<path d="M9.13585 23.6992L5.42773 19.1313L11.86 19.5533L9.13585 23.6992Z" fill="#787051"/>
<path d="M9.10788 21.6941C9.2356 21.7814 9.40149 21.7899 9.5374 21.7159L14.1369 19.2131C14.4067 19.0662 14.4268 18.6865 14.174 18.512L0.645959 9.17957C0.372648 8.99102 0 9.18667 0 9.5187V15.2474C0 15.3834 0.0671371 15.5106 0.179411 15.5874L9.10788 21.6941Z" fill="url(#paint2_linear_15161_508286)"/>
<path d="M0.32251 9.13576L4.76902 6.01886V12.1494L0.32251 9.13576Z" fill="#787051"/>
<path d="M2.30589 9.108C2.21854 9.23572 2.21011 9.40161 2.28407 9.53752L4.78679 14.1367C4.9336 14.4064 5.31338 14.4265 5.48781 14.1737L14.8208 0.645971C15.0093 0.372661 14.8137 0 14.4816 0H8.75255C8.61653 0 8.48927 0.0671387 8.41248 0.179415L2.30589 9.108Z" fill="url(#paint3_linear_15161_508286)"/>
<defs>
<linearGradient id="paint0_linear_15161_508286" x1="12.5191" y1="3.89114" x2="23.697" y2="11.8448" gradientUnits="userSpaceOnUse">
<stop offset="0.3333" stop-color="#BFBAA8"/>
<stop offset="0.4826" stop-color="#BAB5A4"/>
<stop offset="0.6651" stop-color="#ABA797"/>
<stop offset="0.864" stop-color="#928F81"/>
<stop offset="1" stop-color="#7D7B6F"/>
</linearGradient>
<linearGradient id="paint1_linear_15161_508286" x1="19.9733" y1="11.3921" x2="12.5573" y2="23.9674" gradientUnits="userSpaceOnUse">
<stop offset="0.3333" stop-color="#BFBAA8"/>
<stop offset="0.4826" stop-color="#BAB5A4"/>
<stop offset="0.6651" stop-color="#ABA797"/>
<stop offset="0.864" stop-color="#928F81"/>
<stop offset="1" stop-color="#7D7B6F"/>
</linearGradient>
<linearGradient id="paint2_linear_15161_508286" x1="12.44" y1="20.2435" x2="0.294729" y2="12.5047" gradientUnits="userSpaceOnUse">
<stop offset="0.3333" stop-color="#BFBAA8"/>
<stop offset="0.4826" stop-color="#BAB5A4"/>
<stop offset="0.6651" stop-color="#ABA797"/>
<stop offset="0.864" stop-color="#928F81"/>
<stop offset="1" stop-color="#7D7B6F"/>
</linearGradient>
<linearGradient id="paint3_linear_15161_508286" x1="4.98015" y1="11.2091" x2="11.5363" y2="-0.291275" gradientUnits="userSpaceOnUse">
<stop offset="0.3333" stop-color="#BFBAA8"/>
<stop offset="0.4826" stop-color="#BAB5A4"/>
<stop offset="0.6651" stop-color="#ABA797"/>
<stop offset="0.864" stop-color="#928F81"/>
<stop offset="1" stop-color="#7D7B6F"/>
</linearGradient>
</defs>
</svg>
